<?xml version="1.0" encoding="UTF-8" standalone="no"?>
<svg
   xmlns:dc="http://purl.org/dc/elements/1.1/"
   xmlns:cc="http://creativecommons.org/ns#"
   xmlns:rdf="http://www.w3.org/1999/02/22-rdf-syntax-ns#"
   xmlns:svg="http://www.w3.org/2000/svg"
   xmlns="http://www.w3.org/2000/svg"
   viewBox="0 0 192 178"
   height="178"
   width="192"
   id="svg142"
   version="1.1">
  <metadata
     id="metadata148">
    <rdf:RDF>
      <cc:Work
         rdf:about="">
        <dc:format>image/svg+xml</dc:format>
        <dc:type
           rdf:resource="http://purl.org/dc/dcmitype/StillImage" />
        <dc:title></dc:title>
      </cc:Work>
    </rdf:RDF>
  </metadata>
  <defs
     id="defs146" />
  <g
     style="stroke-width:0.1;stroke-miterlimit:4;stroke-dasharray:none;stroke:#000000;stroke-opacity:1"
     id="g3861">
    <path
       id="path3865"
       d="M 45.881475,113.49691 C 39.140388,109.83353 38.026417,96.512769 43.964444,90.57324 L 47.036908,87.5 91.268454,87.248405 c 47.701376,-0.271333 47.122766,-0.328757 51.135146,5.074925 2.54188,3.423283 2.89136,12.8885 0.63176,17.1106 -2.97148,5.55226 -3.13024,5.56955 -50.7357,5.52603 -35.929892,-0.0328 -44.270147,-0.29572 -46.418185,-1.46305 z m 91.547095,-6.06834 c 2.14296,-2.14295 2.08953,-10.198592 -0.0836,-12.599829 C 135.79055,93.111077 133.07723,93 92.673753,93 43.873118,93 46,92.648173 46,100.72073 46,109.6725 42.266531,109 91.963755,109 c 38.569745,0 44.083975,-0.19059 45.464815,-1.57143 z M 60.786301,77.856954 54.072603,74.993111 48.318995,77.53763 C 41.743514,80.44562 38.5,80.445006 38.5,77.535771 c 0,-1.505901 1.826236,-2.72876 7.826588,-5.240734 l 7.826588,-3.276505 6.758745,2.876104 6.758744,2.876104 6.759604,-2.883653 6.759603,-2.883652 6.80138,2.857637 6.801381,2.857636 6.823787,-2.911032 6.82378,-2.911031 6.65561,2.939717 6.65561,2.939717 6.87429,-2.902908 6.87429,-2.902908 7.70595,3.178878 c 7.86708,3.245348 9.86682,5.218 7.58079,7.478079 -1.04265,1.030813 -2.61464,0.70932 -8.28674,-1.69475 l -7,-2.966887 -5.81591,2.517208 c -7.17374,3.104892 -7.88627,3.107618 -15.38928,0.05887 l -6.05,-2.458338 -6.70235,2.827667 -6.702345,2.827666 -6.833221,-2.871014 -6.83322,-2.871015 -4.836837,2.097804 C 73.676577,78.248225 70.6,79.536163 69.5,79.956517 68.161071,80.468175 65.280884,79.774195 60.786301,77.856954 Z m 0,-13 -6.713698,-2.863843 -5.753608,2.544519 C 41.743514,67.44562 38.5,67.445006 38.5,64.535771 c 0,-1.505543 1.823761,-2.727724 7.809884,-5.233741 l 7.809884,-3.269512 6.112524,2.483741 c 7.501666,3.0482 7.418509,3.048118 14.883718,0.01473 l 6.076269,-2.469009 6.076268,2.469009 C 90.610495,59.888946 93.937498,61 94.661887,61 c 0.724389,0 4.183277,-1.147421 7.686413,-2.549824 l 6.36935,-2.549824 5.76561,2.549824 c 7.08187,3.131941 7.12371,3.132012 14.76955,0.02523 l 6.21306,-2.524595 7.72301,3.188604 c 7.88345,3.254845 9.88461,5.227017 7.59786,7.487806 -1.04265,1.030813 -2.61464,0.70932 -8.28674,-1.69475 l -7,-2.966887 -5.81591,2.517208 c -7.17374,3.104892 -7.88627,3.107618 -15.38928,0.05887 l -6.05,-2.458338 -6.70235,2.827667 -6.702345,2.827666 -6.833221,-2.871014 -6.83322,-2.871015 -4.836837,2.097804 C 73.676577,65.248225 70.6,66.536163 69.5,66.956517 68.161071,67.468175 65.280884,66.774195 60.786301,64.856954 Z M 41.084257,48.601524 C 39.354592,46.517405 41.328766,36.031551 44.879258,28.444326 50.278052,16.907367 61.315636,7.4598632 74.809557,2.8257999 83.655236,-0.21197039 99.725151,-0.41623905 108,2.403908 123.3745,7.6436849 134.07887,16.255503 139.81557,28 c 3.45605,7.075426 5.6553,18.634049 3.94808,20.75 -1.57347,1.950185 -101.057048,1.80633 -102.679393,-0.148476 z M 138.39266,40.75 C 137.25033,34.088758 131.15165,23.33916 125.67967,18.341952 115.35234,8.9106693 104.60313,5.4004235 88.728319,6.2751743 80.215663,6.7442477 77.944164,7.2793654 71.524571,10.328016 59.317086,16.125325 50.95447,25.41977 47.588257,36.931501 46.714716,39.918827 46,42.731327 46,43.181501 46,43.631676 66.91375,44 92.475,44 H 138.95 Z M 53.02202,37.526533 C 48.316625,31.856878 65.8294,10.978387 74.277991,12.185456 78.15212,12.738961 77.506207,15.701105 73.011359,17.994205 67.222778,20.947319 59.28349,28.8933 58.517782,32.5 c -1.245884,5.868467 -3.264644,7.714865 -5.495762,5.026533 z"
       style="fill:#94d818;stroke-width:0.1;stroke-miterlimit:4;stroke-dasharray:none;stroke:#000000;stroke-opacity:1" />
    <path
       id="path3863"
       d="m 0,152 v -26.19306 l 9.5832501,0.34653 c 9.3787759,0.33914 9.6454839,0.41621 12.4999999,3.61231 L 25,133.03155 V 152 170.96845 l -2.91675,3.26577 c -2.854516,3.1961 -3.121224,3.27317 -12.4999999,3.61231 L 0,178.19306 Z m 15.33416,17.74492 c 1.524703,-1.11489 1.68567,-3.14413 1.441129,-18.16766 L 16.5,134.66467 13.717011,133.738 C 8.1309185,131.87798 8,132.29164 8,151.80195 c 0,9.82559 0.3,18.16472 0.6666667,18.53138 1.08925,1.08925 4.8238893,0.75967 6.6674933,-0.58841 z M 30,152 V 126 H 41.5 53 v 3.5 3.5 h -7 -7 v 7.5 7.5 h 5.5 5.5 v 3.5 3.5 H 44.5 39 v 8 8 h 7 7 v 3.5 3.5 H 41.5 30 Z m 28,0 v -26 h 4 4 v 22.5 22.5 h 6.5 6.5 v 3.5 3.5 H 68.5 58 Z m 25,0 v -26 h 4 4 v 26 26 h -4 -4 z m 14,0 v -26 h 5.48095 c 6.38507,0 5.40103,-2.12604 8.9676,19.37466 1.35709,8.18106 2.63049,15.03771 2.82977,15.237 0.19929,0.19928 1.3744,-6.71932 2.61137,-15.37466 1.23697,-8.65535 2.47314,-16.5245 2.74706,-17.487 0.3958,-1.3908 1.61311,-1.75 5.93064,-1.75 H 131 v 26 26 h -4 -4 l -0.079,-15.75 c -0.0434,-8.6625 -0.23081,-15.3 -0.41642,-14.75 -0.1856,0.55 -1.32994,7.6375 -2.54297,15.75 l -2.2055,14.75 h -3.78773 -3.78773 l -1.12963,-6.75 c -0.62131,-3.7125 -1.96379,-11.475 -2.9833,-17.25 l -1.85365,-10.5 -0.10706,17.25 L 104,178 H 100.5 97 Z m 38.42115,23.25 c 0.89163,-4.22706 7.56695,-46.57788 7.57327,-48.04772 0.004,-0.95597 1.64311,-1.21931 6.22384,-1 l 6.21825,0.29772 4.09384,25.75 4.09384,25.75 h -4.31209 c -3.80109,0 -4.31372,-0.26664 -4.32575,-2.25 C 154.95155,170.01687 154.04973,169 149,169 c -5.04973,0 -5.95155,1.01687 -5.98635,6.75 -0.0119,1.96341 -0.53327,2.25 -4.09311,2.25 -3.92427,0 -4.05738,-0.10461 -3.49939,-2.75 z m 17.24567,-15.5 c -0.3025,-1.2375 -1.08947,-6.3 -1.74883,-11.25 -0.65936,-4.95 -1.50644,-9.3483 -1.88242,-9.77401 -0.37597,-0.4257 -1.24603,3.6243 -1.93345,9 -0.68743,5.37571 -1.49041,10.78651 -1.7844,12.02401 -0.4899,2.06212 -0.18243,2.25 3.68228,2.25 3.86929,0 4.17149,-0.18543 3.66682,-2.25 z M 167,152 v -26 h 7.35078 c 13.04017,0 16.31056,2.50924 17.30306,13.27594 C 192.77753,151.46572 188.83802,158 180.36514,158 H 176 v 10 10 h -4.5 -4.5 z m 15.79841,-8.97802 C 183.11397,135.1143 182.06134,133 177.80887,133 176.19676,133 176,133.98589 176,142.06336 v 9.06336 l 3.25,-0.31336 3.25,-0.31336 z"
       style="fill:#fc5a1e;stroke-width:0.1;stroke-miterlimit:4;stroke-dasharray:none;stroke:#000000;stroke-opacity:1" />
  </g>
</svg>
